IKResults
version=1
nRows=7
nColumns=40
inDegrees=yes

Units are S.I. units (second, meters, Newtons, ...)
Angles are in degrees.

endheader
time	pelvis_tilt	pelvis_list	pelvis_rotation	pelvis_tx	pelvis_ty	pelvis_tz	hip_flexion_r	hip_adduction_r	hip_rotation_r	knee_angle_r	knee_angle_r_beta	ankle_angle_r	subtalar_angle_r	mtp_angle_r	hip_flexion_l	hip_adduction_l	hip_rotation_l	knee_angle_l	knee_angle_l_beta	ankle_angle_l	subtalar_angle_l	mtp_angle_l	lumbar_extension	lumbar_bending	lumbar_rotation	arm_flex_r	arm_add_r	arm_rot_r	elbow_flex_r	pro_sup_r	wrist_flex_r	wrist_dev_r	arm_flex_l	arm_add_l	arm_rot_l	elbow_flex_l	pro_sup_l	wrist_flex_l	wrist_dev_l
      0.00000000	     15.38167979	     -1.22007349	     -0.43773146	     -1.13935455	      0.95045959	      1.41160764	      3.99868934	     -1.80684108	     -8.22218282	    -44.91247651	     -0.78387059	      8.55104972	    -17.14311632	     17.51488135	    -21.22041897	     -1.35391230	     18.97995964	     -8.85017157	     -0.15446463	     10.60355014	     -3.71094464	     -5.05341889	    -26.25593249	      0.33582904	     -2.01591086	     -6.71066115	    -11.08748494	     -3.81040855	     18.65839286	     89.95437384	      0.00000000	      0.00000000	     12.03117927	     10.81701145	      5.42634202	     29.61525012	     89.95437384	      0.00000000	      0.00000000
      0.01000000	     15.27734894	     -1.30210481	     -0.20450182	     -1.13288183	      0.94986141	      1.41097734	      4.69217749	     -1.74442485	     -8.54788800	    -42.91035596	     -0.74892699	      8.08679174	    -17.20324392	     16.01321675	    -21.54011639	     -1.24246456	     18.62173169	     -8.82150164	     -0.15396425	     10.87644456	     -3.71591615	     -4.72817356	    -26.13339065	      0.56741937	     -2.35684513	     -6.53565599	    -10.90489833	     -4.50118035	     17.61769524	     89.95437384	      0.00000000	      0.00000000	     12.09511172	     10.84787869	      5.58985664	     30.87785393	     89.95437384	      0.00000000	      0.00000000
      0.02000000	     15.27310647	     -1.53513139	      0.10487874	     -1.12616087	      0.94933979	      1.41036178	      5.17278805	     -1.56369447	     -9.20388348	    -40.73562597	     -0.71097080	      7.28214508	    -17.13807496	     14.85021775	    -21.96072996	     -0.96513847	     18.09801450	     -8.86647316	     -0.15474915	     11.34257851	     -3.29491327	     -4.45057781	    -26.10430727	      0.99743688	     -2.52971969	     -6.56686823	    -10.73789406	     -5.66302212	     16.86474204	     89.95437384	      0.00000000	      0.00000000	     12.19637701	     10.82990579	      5.51075950	     32.16212675	     89.95437384	      0.00000000	      0.00000000
      0.03000000	     15.15706467	     -1.65332512	      0.39823420	     -1.11938046	      0.94855952	      1.40975843	      5.74384360	     -1.54764340	     -9.95741226	    -38.53184572	     -0.67250757	      6.38042303	    -16.59967267	     13.78412448	    -22.24371833	     -0.78839883	     17.63325914	     -8.94090350	     -0.15604820	     11.82560826	     -3.03411584	     -4.23267656	    -25.94137140	      1.29987272	     -2.80321811	     -6.61775586	    -10.63946652	     -6.22020675	     16.16700836	     89.95437384	      0.00000000	      0.00000000	     12.22231309	     10.86219206	      5.42073743	     33.40914848	     89.95437384	      0.00000000	      0.00000000
      0.04000000	     15.16563957	     -1.93204951	      0.65297161	     -1.11258575	      0.94795084	      1.40944492	      6.11274375	     -1.32646273	    -10.81199953	    -36.18311819	     -0.63151455	      4.89174652	    -16.15757622	     12.72777730	    -22.69249654	     -0.46201421	     17.10421053	     -8.98329274	     -0.15678804	     12.28223790	     -2.27454643	     -4.01258962	    -25.92915284	      1.73846841	     -2.75428867	     -6.87179462	    -10.49487431	     -7.43030055	     15.77283151	     89.95437384	      0.00000000	      0.00000000	     12.50166805	     10.81934617	      5.06686978	     34.40558195	     89.95437384	      0.00000000	      0.00000000
      0.05000000	     15.02862224	     -2.16579783	      0.83268863	     -1.10578026	      0.94703373	      1.40918955	      6.63121339	     -1.16947798	    -11.72788964	    -33.85168671	     -0.59082339	      3.59000637	    -15.12900412	     12.93472539	    -22.89227493	     -0.17201295	     16.92737444	     -9.18592878	     -0.16032470	     12.74113918	     -2.02161557	     -4.21081595	    -25.77170263	      2.10682862	     -2.86912679	     -6.92882517	    -10.42093888	     -8.04524816	     15.18265758	     89.95437384	      0.00000000	      0.00000000	     12.46609311	     10.85857684	      4.91492007	     35.77971223	     89.95437384	      0.00000000	      0.00000000
      0.06000000	     14.94480454	     -2.40716125	      1.02012453	     -1.09886892	      0.94615547	      1.40897035	      7.02353724	     -1.04567699	    -12.88104217	    -31.50037600	     -0.54978528	      2.19571468	    -13.50715606	     12.66747382	    -23.20407600	      0.12965721	     16.58131731	     -9.31355739	     -0.16255224	     13.16575986	     -1.77908028	     -4.45120330	    -25.67541491	      2.48715136	     -2.84380709	     -7.14233346	    -10.36216378	     -8.60366624	     14.80696335	     89.95437384	      0.00000000	      0.00000000	     12.58535982	     10.75683754	      4.98494479	     36.96482957	     89.95437384	      0.00000000	      0.00000000
